<?xml version="1.0" encoding="UTF-8"?><svg id="Camada_1" xmlns="http://www.w3.org/2000/svg" viewBox="0 0 1168.53 300"><defs><style>.cls-1{fill:#211915;fill-rule:evenodd;}</style></defs><path class="cls-1" d="M85.9,55.41c-13.58-.04-26.26,1.77-38,5.38-11.74,3.61-22.87,9.17-33.38,16.65-2.78,2.13-4.33,4.44-4.7,6.97-.32,2.53,.47,5.2,2.35,8.02l12.68,19.76c2.13,3.03,4.44,4.7,6.97,5.02,2.53,.36,5.2-.54,8.06-2.67,5.89-4.55,12.35-8.16,19.4-10.87,7.04-2.71,14.34-4.12,21.93-4.19,16.15-.11,28.03,4.01,35.65,12.39,7.62,8.42,11.42,21.82,11.34,40.28v2.35h-43.71c-27.56,.11-48.51,6.32-62.85,18.57C7.3,185.35,.07,202.94,0,225.84c.07,24.06,7.51,42.41,22.32,55.05,14.85,12.64,36.48,19.04,64.99,19.11,29.95-.14,52.7-7.84,68.38-23.12,15.64-15.24,23.52-37.28,23.62-66.07v-62.42c-.14-30.81-8.2-54-24.17-69.57-15.97-15.57-39.05-23.37-69.25-23.41h0Zm1.41,200.52c-11.6-.04-20.48-2.67-26.73-7.98-6.25-5.31-9.39-13.15-9.46-23.52,.11-10.37,3.68-18.28,10.69-23.73,7.04-5.45,16.94-8.2,29.73-8.24h36.66v14.12c.04,16.65-3.25,29.04-9.86,37.17-6.65,8.13-16.98,12.21-31.03,12.17h0Zm279.63-11.27c-2.13-3.04-4.44-4.62-6.97-4.77-2.53-.14-5.24,.98-8.06,3.36-4.91,4.23-10.11,7.41-15.61,9.5-5.49,2.13-11.41,3.18-17.74,3.18-15.06,.11-26.48-4.08-34.28-12.57-7.77-8.49-11.7-21.82-11.74-40.06v-51.19c.04-18.24,3.72-31.57,11.09-40.06,7.37-8.49,18.24-12.68,32.58-12.57,6.32,.04,11.99,.8,17.01,2.35,5.06,1.55,9.54,3.76,13.51,6.57,3.03,2.17,5.78,3.14,8.24,3,2.42-.14,4.7-1.63,6.79-4.41l13.15-18.28c2.13-2.85,3.07-5.6,2.82-8.24-.22-2.6-1.63-4.88-4.23-6.79-7.3-5.89-16.04-10.4-26.23-13.55-10.19-3.14-21.64-4.7-34.35-4.73-29.26,.04-51.8,7.8-67.59,23.33-15.79,15.53-23.73,38.58-23.91,69.14v59.17c.18,30.6,8.35,53.71,24.46,69.39,16.11,15.64,38.9,23.52,68.45,23.55,12.93-.04,24.74-2.06,35.47-5.96,10.69-3.94,20.16-9.46,28.39-16.54,2.35-2.13,3.65-4.51,3.87-7.15,.25-2.6-.58-5.24-2.46-7.84l-12.68-17.84h0Zm177.98,13.62c-.97-3.5-2.64-5.67-5.06-6.57-2.38-.9-5.24-.76-8.56,.47-3.07,1.19-6.21,2.1-9.43,2.75-3.25,.65-6.54,1.01-9.83,1.01-11.05-.04-19.47-3.03-25.18-8.99-5.71-5.96-8.6-14.7-8.63-26.26V105.12h56.82c7.12-.07,10.73-3.69,10.8-10.76v-22.54c-.07-7.08-3.68-10.69-10.8-10.76h-56.82V10.8c0-3.54-.94-6.21-2.75-8.05-1.84-1.81-4.52-2.75-8.02-2.75h-29.58c-3.5,0-6.18,.94-8.02,2.75-1.81,1.84-2.74,4.51-2.74,8.05V61.05h-19.72c-7.12,.07-10.73,3.68-10.8,10.76v22.54c.07,7.08,3.69,10.69,10.8,10.76h19.72v115.56c0,26.33,6.57,46.13,19.69,59.39,13.15,13.29,32.87,19.94,59.13,19.94,7.8,0,14.99-.58,21.67-1.73,6.65-1.19,12.57-2.96,17.77-5.31,3.03-1.41,4.98-3.36,5.82-5.78,.87-2.46,.79-5.2-.18-8.27l-6.1-20.63h0Zm215.8-186.43c0-3.54-.94-6.21-2.75-8.06-1.84-1.81-4.51-2.74-8.02-2.74h-28.18c-3.5,0-6.18,.94-8.02,2.74-1.81,1.84-2.74,4.52-2.74,8.06V211.32c.04,15.21-3,26.44-9.1,33.74-6.14,7.3-15.64,10.91-28.5,10.87-12.86,.04-22.36-3.58-28.5-10.87-6.1-7.3-9.14-18.53-9.1-33.74V71.85c0-3.54-.94-6.21-2.74-8.06-1.84-1.81-4.52-2.74-8.02-2.74h-29.58c-3.5,0-6.18,.94-8.02,2.74-1.81,1.84-2.74,4.52-2.74,8.06V213.67c.07,28.03,7.62,49.42,22.65,64.12,14.99,14.7,36.84,22.11,65.6,22.21,28.54-.11,50.25-7.51,65.2-22.21,14.95-14.7,22.47-36.09,22.58-64.12V71.85h0Zm127.12-16.44c-13.58-.04-26.26,1.77-38,5.38-11.74,3.61-22.87,9.17-33.38,16.65-2.78,2.13-4.33,4.44-4.7,6.97-.33,2.53,.47,5.2,2.35,8.02l12.68,19.76c2.13,3.03,4.44,4.7,6.97,5.02,2.53,.36,5.2-.54,8.06-2.67,5.89-4.55,12.35-8.16,19.4-10.87,7.04-2.71,14.34-4.12,21.93-4.19,16.15-.11,28.03,4.01,35.65,12.39,7.62,8.42,11.42,21.82,11.34,40.28v2.35h-43.71c-27.56,.11-48.51,6.32-62.85,18.57-14.34,12.28-21.57,29.87-21.64,52.78,.07,24.06,7.51,42.41,22.32,55.05,14.85,12.64,36.48,19.04,64.99,19.11,29.95-.14,52.7-7.84,68.38-23.12,15.64-15.24,23.52-37.28,23.62-66.07v-62.42c-.14-30.81-8.2-54-24.17-69.57-15.97-15.57-39.05-23.37-69.25-23.41h0Zm1.41,200.52c-11.6-.04-20.48-2.67-26.73-7.98-6.25-5.31-9.39-13.15-9.46-23.52,.11-10.37,3.69-18.28,10.69-23.73,7.04-5.45,16.94-8.2,29.73-8.24h36.67v14.12c.04,16.65-3.25,29.04-9.86,37.17-6.65,8.13-16.98,12.21-31.03,12.17h0Zm139.76,27.63c.07,7.12,3.68,10.73,10.76,10.8h29.59c7.08-.07,10.69-3.68,10.76-10.8V142.22c-.07-28.57,11.81-42.81,35.69-42.73,4.48,0,8.92,.58,13.26,1.7,4.37,1.12,8.56,2.75,12.57,4.88,3.29,1.7,6.1,2.31,8.52,1.84,2.38-.51,4.41-2.35,6.03-5.6l10.8-19.22c1.44-2.85,1.88-5.6,1.3-8.16-.58-2.56-2.24-4.7-5.06-6.39-14.95-8.81-32.47-13.18-52.6-13.11-27.02,.07-47.36,7.55-61.05,22.47-13.69,14.88-20.55,36.81-20.59,65.74v139.94Z"/></svg>