<?xml version="1.0" encoding="UTF-8" standalone="no"?><!DOCTYPE svg PUBLIC "-//W3C//DTD SVG 1.1//EN" "http://www.w3.org/Graphics/SVG/1.1/DTD/svg11.dtd"><svg width="100%" height="100%" viewBox="0 0 1298 294" version="1.1" xmlns="http://www.w3.org/2000/svg" xmlns:xlink="http://www.w3.org/1999/xlink" xml:space="preserve" xmlns:serif="http://www.serif.com/" style="fill-rule:evenodd;clip-rule:evenodd;stroke-linejoin:round;stroke-miterlimit:2;"><g><path d="M127.009,69.774l34.32,59.629l-76.979,133.725c-7.329,12.733 -20.654,19.854 -34.358,19.854c-6.704,0 -13.496,-1.7 -19.725,-5.287c-18.954,-10.909 -25.475,-35.121 -14.563,-54.08l111.046,-192.908c-6.554,11.754 -6.946,26.558 0.259,39.067" style="fill:none;fill-rule:nonzero;stroke:#fff;stroke-width:20.83px;"/><path d="M292.394,277.696c-6.225,3.584 -13.017,5.288 -19.717,5.288c-13.704,-0 -27.038,-7.121 -34.363,-19.854l-76.983,-133.73l34.325,-59.625c7.188,-12.487 6.813,-27.258 0.296,-39.004l111.008,192.846c10.913,18.954 4.396,43.171 -14.566,54.079" style="fill:none;fill-rule:nonzero;stroke:#fff;stroke-width:20.83px;"/><path d="M195.286,70.417c3.588,-5.963 5.65,-12.938 5.65,-20.4c0,-21.875 -17.729,-39.6 -39.604,-39.6c-21.871,-0 -39.604,17.725 -39.604,39.6c0,7.454 2.058,14.42 5.633,20.375l33.971,59.008l33.954,-58.983Z" style="fill:none;fill-rule:nonzero;stroke:#fff;stroke-width:20.83px;"/><path d="M1186.25,243.74c0.059,5.662 2.934,8.537 8.571,8.596l23.546,-0c5.637,-0.059 8.508,-2.934 8.567,-8.596l-0,-112.504c-0.059,-22.742 9.404,-34.071 28.404,-34.013c3.566,0 7.104,0.463 10.55,1.354c3.479,0.892 6.816,2.188 10.008,3.88c2.617,1.354 4.858,1.841 6.788,1.466c1.895,-0.4 3.504,-1.866 4.8,-4.454l8.595,-15.296c1.15,-2.275 1.496,-4.458 1.034,-6.496c-0.459,-2.045 -1.779,-3.741 -4.021,-5.091c-11.908,-7.017 -25.85,-10.496 -41.863,-10.438c-21.504,0.059 -37.691,6.009 -48.587,17.884c-10.9,11.845 -16.363,29.295 -16.392,52.329l0,111.379Zm-111.233,-21.996c-9.229,-0.029 -16.3,-2.129 -21.279,-6.354c-4.971,-4.225 -7.475,-10.463 -7.529,-18.717c0.083,-8.25 2.933,-14.546 8.512,-18.887c5.6,-4.342 13.479,-6.529 23.658,-6.554l29.18,-0l-0,11.237c0.033,13.258 -2.588,23.117 -7.85,29.588c-5.288,6.466 -13.509,9.716 -24.692,9.687m-1.125,-159.596c-10.808,-0.029 -20.896,1.413 -30.246,4.284c-9.342,2.879 -18.196,7.304 -26.562,13.254c-2.213,1.696 -3.45,3.537 -3.738,5.55c-0.262,2.012 0.375,4.141 1.867,6.383l10.091,15.729c1.696,2.413 3.538,3.734 5.55,3.996c2.013,0.288 4.138,-0.433 6.413,-2.129c4.683,-3.621 9.833,-6.5 15.437,-8.654c5.609,-2.159 11.413,-3.275 17.455,-3.338c12.85,-0.087 22.308,3.196 28.375,9.863c6.066,6.7 9.087,17.366 9.025,32.054l-0,1.875l-34.784,-0c-21.937,0.083 -38.612,5.029 -50.025,14.775c-11.412,9.775 -17.166,23.779 -17.225,42.004c0.059,19.146 5.984,33.754 17.771,43.817c11.817,10.062 29.033,15.15 51.721,15.208c23.829,-0.117 41.946,-6.237 54.421,-18.4c12.454,-12.129 18.716,-29.667 18.804,-52.583l-0,-49.679c-0.113,-24.525 -6.525,-42.988 -19.233,-55.375c-12.709,-12.392 -31.08,-18.605 -55.117,-18.634m-101.171,13.084c0,-2.817 -0.75,-4.946 -2.183,-6.409c-1.467,-1.441 -3.596,-2.187 -6.384,-2.187l-22.429,-0c-2.783,-0 -4.912,0.746 -6.379,2.187c-1.442,1.463 -2.183,3.592 -2.183,6.409l-0,111.004c0.029,12.104 -2.388,21.046 -7.246,26.858c-4.888,5.804 -12.45,8.679 -22.688,8.65c-10.233,0.029 -17.795,-2.846 -22.683,-8.65c-4.858,-5.812 -7.271,-14.754 -7.242,-26.858l0,-111.004c0,-2.817 -0.75,-4.946 -2.187,-6.409c-1.467,-1.441 -3.592,-2.187 -6.383,-2.187l-23.546,-0c-2.788,-0 -4.917,0.746 -6.384,2.187c-1.437,1.463 -2.183,3.592 -2.183,6.409l0,112.87c0.058,22.313 6.067,39.334 18.025,51.038c11.929,11.7 29.325,17.592 52.208,17.679c22.717,-0.087 39.996,-5.979 51.896,-17.679c11.904,-11.704 17.884,-28.725 17.971,-51.038l0,-112.87Zm-171.758,148.383c-0.771,-2.792 -2.096,-4.517 -4.025,-5.233c-1.896,-0.721 -4.167,-0.605 -6.813,0.37c-2.441,0.95 -4.946,1.667 -7.504,2.184c-2.583,0.521 -5.2,0.808 -7.817,0.808c-8.8,-0.029 -15.5,-2.412 -20.041,-7.158c-4.542,-4.746 -6.842,-11.704 -6.871,-20.904l-0,-91.971l45.221,-0c5.666,-0.059 8.541,-2.934 8.6,-8.571l-0,-17.938c-0.059,-5.637 -2.934,-8.508 -8.6,-8.566l-45.221,-0l-0,-39.996c-0,-2.813 -0.75,-4.942 -2.183,-6.408c-1.467,-1.438 -3.596,-2.188 -6.388,-2.188l-23.542,0c-2.791,0 -4.92,0.75 -6.383,2.188c-1.437,1.466 -2.187,3.595 -2.187,6.408l-0,39.996l-15.696,-0c-5.667,0.058 -8.538,2.929 -8.6,8.566l-0,17.938c0.062,5.637 2.933,8.512 8.6,8.571l15.696,-0l-0,91.971c-0,20.962 5.233,36.716 15.67,47.266c10.467,10.579 26.163,15.871 47.063,15.871c6.212,0 11.933,-0.462 17.254,-1.379c5.288,-0.95 10.004,-2.358 14.142,-4.225c2.416,-1.125 3.966,-2.679 4.629,-4.604c0.687,-1.95 0.633,-4.138 -0.146,-6.584l-4.858,-16.412Zm-141.65,-10.842c-1.696,-2.416 -3.534,-3.679 -5.55,-3.796c-2.013,-0.112 -4.171,0.78 -6.413,2.675c-3.908,3.363 -8.05,5.896 -12.416,7.559c-4.371,1.7 -9.088,2.533 -14.117,2.533c-11.992,0.083 -21.079,-3.25 -27.288,-10.008c-6.179,-6.754 -9.312,-17.363 -9.341,-31.879l-0,-40.742c0.029,-14.521 2.962,-25.129 8.825,-31.888c5.862,-6.754 14.516,-10.091 25.933,-10.004c5.033,0.034 9.546,0.634 13.542,1.871c4.025,1.238 7.591,2.992 10.754,5.233c2.412,1.725 4.6,2.5 6.554,2.384c1.925,-0.113 3.738,-1.292 5.404,-3.509l10.467,-14.545c1.696,-2.271 2.442,-4.455 2.242,-6.555c-0.171,-2.07 -1.296,-3.883 -3.363,-5.404c-5.812,-4.687 -12.762,-8.279 -20.875,-10.783c-8.108,-2.5 -17.221,-3.738 -27.342,-3.767c-23.287,0.029 -41.229,6.213 -53.791,18.575c-12.563,12.363 -18.892,30.704 -19.034,55.029l0,47.092c0.142,24.35 6.642,42.754 19.463,55.229c12.825,12.45 30.967,18.717 54.483,18.746c10.292,-0.029 19.696,-1.637 28.238,-4.742c8.508,-3.137 16.037,-7.537 22.591,-13.17c1.871,-1.692 2.909,-3.592 3.08,-5.692c0.204,-2.067 -0.463,-4.167 -1.955,-6.238l-10.091,-14.204Zm-222.559,8.971c-9.229,-0.029 -16.3,-2.129 -21.275,-6.354c-4.975,-4.225 -7.475,-10.463 -7.533,-18.717c0.088,-8.25 2.933,-14.546 8.508,-18.887c5.609,-4.342 13.484,-6.529 23.667,-6.554l29.179,-0l0,11.237c0.025,13.258 -2.587,23.117 -7.85,29.588c-5.291,6.466 -13.512,9.716 -24.696,9.687m-1.12,-159.596c-10.813,-0.029 -20.905,1.413 -30.246,4.284c-9.342,2.879 -18.2,7.304 -26.567,13.254c-2.212,1.696 -3.45,3.537 -3.737,5.55c-0.259,2.012 0.375,4.141 1.87,6.383l10.088,15.729c1.7,2.413 3.537,3.734 5.55,3.996c2.012,0.288 4.142,-0.433 6.412,-2.129c4.688,-3.621 9.834,-6.5 15.442,-8.654c5.604,-2.159 11.413,-3.275 17.45,-3.338c12.85,-0.087 22.313,3.196 28.375,9.863c6.067,6.7 9.083,17.366 9.029,32.054l0,1.875l-34.787,-0c-21.938,0.083 -38.617,5.029 -50.029,14.775c-11.413,9.775 -17.163,23.779 -17.221,42.004c0.058,19.146 5.983,33.754 17.766,43.817c11.821,10.062 29.042,15.15 51.725,15.208c23.834,-0.117 41.946,-6.237 54.425,-18.4c12.45,-12.129 18.717,-29.667 18.8,-52.583l0,-49.679c-0.112,-24.525 -6.525,-42.988 -19.233,-55.375c-12.708,-12.392 -31.079,-18.605 -55.112,-18.634" style="fill:#fff;"/></g></svg>